<?xml version="1.0" encoding="utf-8"?>
<!-- Generator: Adobe Illustrator 26.2.1, SVG Export Plug-In . SVG Version: 6.00 Build 0)  -->
<svg version="1.1" xmlns="http://www.w3.org/2000/svg" xmlns:xlink="http://www.w3.org/1999/xlink" x="0px" y="0px"
	 viewBox="0 0 45.4 43.6" style="enable-background:new 0 0 45.4 43.6;" xml:space="preserve">
<style type="text/css">
	.st0{display:none;}
	.st1{display:inline;}
	.st2{fill:#E2E2E2;}
	.st3{fill:#FFFFFF;}
	.st4{fill:#F8F7F5;}
	.st5{fill:#CFC7C0;}
	.st6{fill:#141414;}
	.st7{fill:none;}
	.st8{fill:none;stroke:#CFC7C0;stroke-width:3;stroke-miterlimit:10;}
	.st9{display:inline;opacity:0.9;}
	.st10{fill:#F4F4F4;}
	.st11{display:inline;fill:#687687;}
	.st12{display:inline;fill:#141414;}
	.st13{display:inline;fill:#CFC7C0;}
	.st14{display:inline;fill:#B9FF40;}
	.st15{display:inline;fill:#43484F;}
	.st16{display:inline;fill:#0A0A0C;}
	.st17{fill:#B9FF40;}
	.st18{fill:#0A0A0C;}
	.st19{display:inline;fill:none;stroke:#000000;stroke-width:7;stroke-miterlimit:10;}
	.st20{fill:#282828;}
	.st21{fill:#687687;}
	.st22{display:inline;fill:none;stroke:#000000;stroke-width:3;stroke-miterlimit:12;}
	.st23{display:inline;fill:none;stroke:#687687;stroke-miterlimit:12;}
	.st24{clip-path:url(#SVGID_00000177484804058554882770000000286210149918945709_);fill:#110535;}
	.st25{clip-path:url(#SVGID_00000177484804058554882770000000286210149918945709_);}
	.st26{fill:#1723FF;}
	.st27{fill:#0BFFD6;}
	.st28{clip-path:url(#SVGID_00000011030783234246872360000008212636965748939427_);fill:#1D0751;}
	.st29{display:inline;fill:#1723FF;}
	.st30{display:inline;fill:#FFFFFF;}
	.st31{fill:#1D0751;}
	.st32{display:inline;fill:#1D0751;}
	.st33{display:inline;fill:#0BFFD6;}
	.st34{display:inline;opacity:0.3;}
	.st35{fill:#999999;}
	.st36{fill:#6B6B6B;}
	.st37{fill:#FF5F6B;}
	.st38{display:inline;fill:#CBD1F4;}
</style>
<g id="ESTRUCTURA" class="st0">
</g>
<g id="DENTAL_HAUS">
	<path class="st4" d="M41,9.7c-1.2,0.5-2.4,0.8-3.7,1.1c0.6-0.1,1.5-1.2,1.8-1.6c0.5-0.7,1-1.4,1.2-2.2c0-0.1,0.1-0.1,0-0.2
		c-0.1,0-0.1,0-0.2,0c-1.4,0.7-2.8,1.3-4.4,1.7c-0.1,0-0.2,0-0.3-0.1c-0.1-0.1-0.2-0.3-0.4-0.4c-0.6-0.5-1.3-1-2.1-1.3
		c-1-0.4-2.1-0.6-3.2-0.5c-1.1,0.1-2.1,0.4-3.1,0.9c-1,0.5-1.8,1.2-2.5,2c-0.7,0.9-1.2,1.9-1.5,3c-0.3,1-0.2,2.1-0.1,3.1
		c0,0.2,0,0.2-0.2,0.2c-6-0.9-11-3-15-7.6C7.3,7.5,7.2,7.5,7,7.7c-1.8,2.7-0.9,6.9,1.3,9c0.3,0.3,0.6,0.6,0.9,0.8
		c-0.1,0-1.6-0.1-2.9-0.8c-0.2-0.1-0.3,0-0.3,0.2c0,0.3,0,0.5,0,0.9c0.3,2.7,2.2,5.2,4.7,6.1c0.3,0.1,0.6,0.2,1,0.3
		c-0.6,0.1-1.2,0.2-2.8,0.1c-0.2,0-0.3,0.1-0.2,0.3c1.3,3.4,4,4.4,6,5c0.3,0,0.5,0,0.8,0.1c0,0,0,0,0,0c-0.7,1-3,1.8-4.1,2.2
		c-2,0.7-4.1,1-6.2,0.8c-0.3,0-0.4,0-0.5,0c-0.1,0.1,0,0.1,0.1,0.2c0.4,0.3,0.9,0.5,1.3,0.8c1.3,0.7,2.7,1.3,4.1,1.7
		c7.4,2.1,15.8,0.5,21.4-5c4.4-4.4,5.9-10.4,5.9-16.4c0-0.2,0.3-0.4,0.4-0.5c1.1-0.9,2.1-1.9,2.9-3c0.2-0.3,0.2-0.5,0.2-0.6
		c0,0,0,0,0,0C41.2,9.6,41.2,9.6,41,9.7z"/>
</g>
<g id="UCLEAR" class="st0">
</g>
<g id="EMAGINE" class="st0">
</g>
<g id="GUIAS" class="st0">
	<rect x="17.3" y="-111.6" class="st38" width="410" height="140.5"/>
</g>
</svg>
