<?xml version="1.0" encoding="utf-8"?>
<!-- Generator: Adobe Illustrator 26.2.1, SVG Export Plug-In . SVG Version: 6.00 Build 0)  -->
<svg version="1.1" xmlns="http://www.w3.org/2000/svg" xmlns:xlink="http://www.w3.org/1999/xlink" x="0px" y="0px"
	 viewBox="0 0 45.4 43.6" style="enable-background:new 0 0 45.4 43.6;" xml:space="preserve">
<style type="text/css">
	.st0{display:none;}
	.st1{display:inline;}
	.st2{fill:#E2E2E2;}
	.st3{fill:#FFFFFF;}
	.st4{fill:#F8F7F5;}
	.st5{fill:#CFC7C0;}
	.st6{fill:#141414;}
	.st7{fill:none;}
	.st8{fill:none;stroke:#CFC7C0;stroke-width:3;stroke-miterlimit:10;}
	.st9{display:inline;opacity:0.9;}
	.st10{fill:#F4F4F4;}
	.st11{display:inline;fill:#687687;}
	.st12{display:inline;fill:#141414;}
	.st13{display:inline;fill:#CFC7C0;}
	.st14{display:inline;fill:#B9FF40;}
	.st15{display:inline;fill:#43484F;}
	.st16{display:inline;fill:#0A0A0C;}
	.st17{fill:#B9FF40;}
	.st18{fill:#0A0A0C;}
	.st19{display:inline;fill:none;stroke:#000000;stroke-width:7;stroke-miterlimit:10;}
	.st20{fill:#282828;}
	.st21{fill:#687687;}
	.st22{display:inline;fill:none;stroke:#000000;stroke-width:3;stroke-miterlimit:12;}
	.st23{display:inline;fill:none;stroke:#687687;stroke-miterlimit:12;}
	.st24{clip-path:url(#SVGID_00000004517610678762535660000005789405105422956723_);fill:#110535;}
	.st25{clip-path:url(#SVGID_00000004517610678762535660000005789405105422956723_);}
	.st26{fill:#1723FF;}
	.st27{fill:#0BFFD6;}
	.st28{clip-path:url(#SVGID_00000178177304007864698620000009056056716822962342_);fill:#1D0751;}
	.st29{display:inline;fill:#1723FF;}
	.st30{display:inline;fill:#FFFFFF;}
	.st31{fill:#1D0751;}
	.st32{display:inline;fill:#1D0751;}
	.st33{display:inline;fill:#0BFFD6;}
	.st34{display:inline;opacity:0.3;}
	.st35{fill:#999999;}
	.st36{fill:#6B6B6B;}
	.st37{fill:#FF5F6B;}
	.st38{display:inline;fill:#CBD1F4;}
</style>
<g id="ESTRUCTURA" class="st0">
</g>
<g id="DENTAL_HAUS">
	<g>
		<g>
			<g>
				<path class="st4" d="M22.7,9.4c4,0,4.5,0,6.1,0.1c1.5,0.1,2.3,0.3,2.8,0.5c0.7,0.3,1.2,0.6,1.7,1.1c0.5,0.5,0.9,1,1.1,1.7
					c0.2,0.5,0.5,1.3,0.5,2.8c0.1,1.6,0.1,2.1,0.1,6.1s0,4.5-0.1,6.1c-0.1,1.5-0.3,2.3-0.5,2.8c-0.3,0.7-0.6,1.2-1.1,1.7
					c-0.5,0.5-1,0.9-1.7,1.1c-0.5,0.2-1.3,0.5-2.8,0.5c-1.6,0.1-2.1,0.1-6.1,0.1s-4.5,0-6.1-0.1c-1.5-0.1-2.3-0.3-2.8-0.5
					c-0.7-0.3-1.2-0.6-1.7-1.1c-0.5-0.5-0.9-1-1.1-1.7c-0.2-0.5-0.5-1.3-0.5-2.8c-0.1-1.6-0.1-2.1-0.1-6.1s0-4.5,0.1-6.1
					c0.1-1.5,0.3-2.3,0.5-2.8c0.3-0.7,0.6-1.2,1.1-1.7c0.5-0.5,1-0.9,1.7-1.1c0.5-0.2,1.3-0.5,2.8-0.5C18.2,9.4,18.7,9.4,22.7,9.4
					 M22.7,6.7c-4.1,0-4.6,0-6.2,0.1c-1.6,0.1-2.7,0.3-3.7,0.7c-1,0.4-1.8,0.9-2.7,1.7c-0.8,0.8-1.4,1.7-1.7,2.7
					c-0.4,1-0.6,2.1-0.7,3.7c-0.1,1.6-0.1,2.1-0.1,6.2s0,4.6,0.1,6.2c0.1,1.6,0.3,2.7,0.7,3.7c0.4,1,0.9,1.8,1.7,2.7
					c0.8,0.8,1.7,1.4,2.7,1.7c1,0.4,2.1,0.6,3.7,0.7c1.6,0.1,2.1,0.1,6.2,0.1s4.6,0,6.2-0.1c1.6-0.1,2.7-0.3,3.7-0.7
					c1-0.4,1.8-0.9,2.7-1.7c0.8-0.8,1.4-1.7,1.7-2.7c0.4-1,0.6-2.1,0.7-3.7c0.1-1.6,0.1-2.1,0.1-6.2s0-4.6-0.1-6.2
					c-0.1-1.6-0.3-2.7-0.7-3.7c-0.4-1-0.9-1.8-1.7-2.7c-0.8-0.8-1.7-1.4-2.7-1.7c-1-0.4-2.1-0.6-3.7-0.7C27.3,6.7,26.8,6.7,22.7,6.7
					L22.7,6.7z"/>
				<path class="st4" d="M22.7,14c-4.3,0-7.8,3.5-7.8,7.8s3.5,7.8,7.8,7.8s7.8-3.5,7.8-7.8S27,14,22.7,14z M22.7,26.8
					c-2.8,0-5-2.3-5-5s2.3-5,5-5s5,2.3,5,5S25.5,26.8,22.7,26.8z"/>
				<path class="st4" d="M32.6,13.7c0,1-0.8,1.8-1.8,1.8c-1,0-1.8-0.8-1.8-1.8c0-1,0.8-1.8,1.8-1.8C31.8,11.9,32.6,12.7,32.6,13.7z"
					/>
			</g>
		</g>
	</g>
</g>
<g id="UCLEAR" class="st0">
</g>
<g id="EMAGINE" class="st0">
</g>
<g id="GUIAS" class="st0">
	<rect x="-139.3" y="-111.6" class="st38" width="410" height="140.5"/>
</g>
</svg>
